<svg xmlns="http://www.w3.org/2000/svg" width="360" height="540"><g transform="translate(-30 1227.62)"><rect y="-1227.14" x="30.5" rx="29.944" height="539" width="359" fill="#fff" stroke="#000"/><g fill="#f55"><path d="M60-1197.64l-10 50h5l2.5-15h5l2.5 15h5l-10-50zm-2 36l2-14 2 14z"/><path d="m210-997.64c0 0 8 13.333 17.333 22.667 9.333 9.333 22.667 17.333 22.667 17.333 0 0-13.333 8-22.667 17.333-9.333 9.333-17.333 22.667-17.333 22.667 0 0-8-13.333-17.333-22.667-9.333-9.333-22.667-17.333-22.667-17.333 0 0 13.333-8 22.667-17.333 9.333-9.333 17.333-22.667 17.333-22.667"/><path d="m360-807.64c0 0 3 5 6.5 8.5 3.5 3.5 8.5 6.5 8.5 6.5 0 0-5 3-8.5 6.5-3.5 3.5-6.5 8.5-6.5 8.5 0 0-3-5-6.5-8.5-3.5-3.5-8.5-6.5-8.5-6.5 0 0 5-3 8.5-6.5 3.5-3.5 6.5-8.5 6.5-8.5"/><path d="m60-1137.64c0 0 3 5 6.5 8.5 3.5 3.5 8.5 6.5 8.5 6.5 0 0-5 3-8.5 6.5-3.5 3.5-6.5 8.5-6.5 8.5 0 0-3-5-6.5-8.5-3.5-3.5-8.5-6.5-8.5-6.5 0 0 5-3 8.5-6.5 3.5-3.5 6.5-8.5 6.5-8.5"/><path d="M360-717.64l10-50h-5l-2.5 15h-5l-2.5-15h-5l10 50zm2-36l-2 14-2-14z"/></g></g></svg>